<?xml version="1.0" encoding="UTF-8" standalone="no"?>
<svg
   enable-background="new"
   version="1.1"
   viewBox="0 0 170.60816 165.91545"
   id="svg204"
   sodipodi:docname="logo.svg"
   inkscape:version="1.2.1 (9c6d41e410, 2022-07-14, custom)"
   width="170.60815"
   height="165.91545"
   xmlns:inkscape="http://www.inkscape.org/namespaces/inkscape"
   xmlns:sodipodi="http://sodipodi.sourceforge.net/DTD/sodipodi-0.dtd"
   xmlns:xlink="http://www.w3.org/1999/xlink"
   xmlns="http://www.w3.org/2000/svg"
   xmlns:svg="http://www.w3.org/2000/svg">
  <sodipodi:namedview
     id="namedview206"
     pagecolor="#ffffff"
     bordercolor="#666666"
     borderopacity="1.0"
     inkscape:showpageshadow="2"
     inkscape:pageopacity="0.0"
     inkscape:pagecheckerboard="0"
     inkscape:deskcolor="#d1d1d1"
     showgrid="false"
     inkscape:zoom="3.8561309"
     inkscape:cx="62.108887"
     inkscape:cy="90.375563"
     inkscape:window-width="1900"
     inkscape:window-height="1024"
     inkscape:window-x="0"
     inkscape:window-y="0"
     inkscape:window-maximized="1"
     inkscape:current-layer="svg204" />
  <defs
     id="defs184">
    <linearGradient
       id="a">
      <stop
         stop-color="#fddb53"
         offset="0"
         id="stop156" />
      <stop
         stop-color="#fee06b"
         offset=".5"
         id="stop158" />
      <stop
         stop-color="#927d2c"
         offset="1"
         id="stop160" />
    </linearGradient>
    <filter
       id="i"
       color-interpolation-filters="sRGB"
       x="-0.032114991"
       y="-0.028857153"
       width="1.066301"
       height="1.0549272">
      <feGaussianBlur
         result="result6"
         stdDeviation="1.5"
         id="feGaussianBlur163" />
      <feComposite
         in="SourceGraphic"
         in2="result6"
         operator="atop"
         result="result8"
         id="feComposite165" />
      <feComposite
         in="result8"
         in2="SourceAlpha"
         operator="atop"
         result="result9"
         id="feComposite167" />
    </filter>
    <linearGradient
       id="j"
       x1="314.25"
       x2="209.89"
       y1="395.54001"
       y2="372.26001"
       gradientUnits="userSpaceOnUse">
      <stop
         offset="0"
         id="stop170" />
      <stop
         stop-color="#151515"
         offset="1"
         id="stop176" />
    </linearGradient>
    <radialGradient
       id="k"
       cx="249.32001"
       cy="376.67999"
       r="13.284"
       gradientUnits="userSpaceOnUse"
       xlink:href="#a" />
    <radialGradient
       id="l"
       cx="279.66"
       cy="427.01999"
       r="6.6422"
       gradientUnits="userSpaceOnUse"
       xlink:href="#a" />
    <radialGradient
       id="m"
       cx="230.57001"
       cy="406.85001"
       r="10.489"
       gradientTransform="matrix(1,0,0,1.0024,0,-0.97953)"
       gradientUnits="userSpaceOnUse"
       xlink:href="#a" />
    <radialGradient
       id="n"
       cx="264.66"
       cy="337.01999"
       r="6.6422"
       gradientUnits="userSpaceOnUse"
       xlink:href="#a" />
    <radialGradient
       id="o"
       cx="274.66"
       cy="382.01999"
       r="6.6422"
       gradientUnits="userSpaceOnUse"
       xlink:href="#a" />
    <filter
       id="b"
       x="-0.058173159"
       y="-0.058221127"
       width="1.1163463"
       height="1.1164423">
      <feGaussianBlur
         stdDeviation="10.09393"
         id="feGaussianBlur261" />
    </filter>
    <radialGradient
       id="e"
       cx="380"
       cy="389.51001"
       r="148.86"
       gradientTransform="matrix(-0.10557,-0.9309,0.99363,-0.11268,45.964,812.42)"
       gradientUnits="userSpaceOnUse"
       xlink:href="#a-3" />
    <linearGradient
       id="a-3">
      <stop
         stop-color="#bedcdc"
         offset="0"
         id="stop264" />
      <stop
         stop-color="#8e9e9e"
         stop-opacity=".7415"
         offset=".5"
         id="stop266" />
      <stop
         stop-color="#404f5c"
         stop-opacity=".83922"
         offset="1"
         id="stop268" />
    </linearGradient>
    <filter
       id="c"
       x="-0.04363435"
       y="-0.04363471"
       width="1.0872687"
       height="1.0872694">
      <feGaussianBlur
         stdDeviation="3.95909"
         id="feGaussianBlur258" />
    </filter>
    <filter
       id="filter376"
       x="-0.058173157"
       y="-0.058221128"
       width="1.1163464"
       height="1.1164423">
      <feGaussianBlur
         stdDeviation="10.09393"
         id="feGaussianBlur374" />
    </filter>
    <radialGradient
       id="d"
       cx="380"
       cy="389.51001"
       r="148.86"
       gradientTransform="matrix(0.086859,-0.58077,0.6221,0.093576,261.99,772.78)"
       gradientUnits="userSpaceOnUse"
       xlink:href="#a-3" />
    <filter
       id="filter389"
       x="-0.043634351"
       y="-0.043634705"
       width="1.0872687"
       height="1.0872694">
      <feGaussianBlur
         stdDeviation="3.95909"
         id="feGaussianBlur387" />
    </filter>
  </defs>
  <g
     transform="translate(-174.8566,-302.81644)"
     id="g202">
    <path
       d="m 210.35,450.59 c 15,-40 24.259,-81.392 43.181,-105.71 18.923,-24.315 45.205,-26.396 66.464,-37.525 -3.5468,16.382 -30.035,23.842 -30,45 5,40 -2.4251,66.717 12.575,96.717 9.8315,3.3333 31.233,9.9497 37.425,13.283 -52.946,1.7438 -105.75,4.1055 -160,0 6.2442,-3.9671 22.8,-9.7662 30.354,-11.768 z"
       fill="url(#j)"
       filter="url(#i)"
       stroke="#000000"
       stroke-width="1px"
       id="path186"
       style="fill:url(#j)" />
  </g>
  <g
     transform="matrix(0.14384699,0,0,0.14384699,23.596894,53.733052)"
     id="g299"
     style="display:inline">
    <path
       transform="matrix(0.95883,0,0,1.0046,28.865,22.524)"
       d="m 417.44,175.31 c -2.4076,18.121 -17.911,32.125 -36.688,32.125 -17.823,1e-5 -32.724,-12.598 -36.25,-29.375 -13.059,2.8118 -25.653,6.8501 -37.688,11.969 6.5954,16.77 0.1373,36.313 -15.938,45.594 -14.925,8.6172 -33.388,5.6812 -44.938,-6.0625 -8.1,7.5312 -15.638,15.691 -22.469,24.406 14.381,11.169 18.672,31.538 9.3125,47.75 -8.9272,15.462 -27.34,22.073 -43.656,16.688 -3.9103,12.02 -6.7791,24.515 -8.4688,37.375 18.742,1.8253 33.406,17.624 33.406,36.844 1e-5,18.105 -13.012,33.161 -30.188,36.375 1.278,5.759 2.7594,11.429 4.5,17 3.3596,-0.88443 6.7951,-1.2953 10.188,-1.2188 12.508,0.28213 24.573,6.9121 31.281,18.531 9.1309,15.815 5.2637,35.579 -8.2812,46.906 7.5576,9.9478 15.979,19.208 25.156,27.656 6.9784,-8.4532 17.228,-13.199 27.781,-13.438 6.5516,-0.14778 13.195,1.4549 19.281,4.9688 16.875,9.743 23.171,30.78 14.875,48.062 11.475,4.7507 23.452,8.5195 35.844,11.188 3.5263,-16.777 18.427,-29.375 36.25,-29.375 18.777,-3e-5 34.28,14.004 36.688,32.125 11.22,-1.5295 22.165,-3.9251 32.75,-7.1562 -5.5376,-16.378 1.0517,-34.933 16.594,-43.906 5.5329,-3.1944 11.561,-4.7835 17.531,-4.9375 12.004,-0.3097 23.785,5.2531 31.094,15.5 10.674,-8.0782 20.554,-17.162 29.5,-27.094 -12.831,-11.436 -16.335,-30.691 -7.4062,-46.156 6.7083,-11.619 18.774,-18.249 31.281,-18.531 4.9894,-0.11254 10.057,0.79237 14.875,2.7812 4.3232,-10.704 7.7884,-21.851 10.312,-33.344 -16.098,-4.0234 -28.031,-18.597 -28.031,-35.938 3e-5,-18.442 13.506,-33.741 31.156,-36.562 -2.4486,-18.837 -7.3968,-36.882 -14.5,-53.812 -17.277,8.2777 -38.293,1.9922 -48.031,-14.875 -9.1042,-15.769 -5.2665,-35.469 8.1875,-46.812 -8.0768,-8.6995 -16.877,-16.737 -26.312,-23.969 -11.356,13.373 -30.989,17.175 -46.719,8.0938 -14.783,-8.5352 -21.462,-25.745 -17.312,-41.5 -11.275,-3.58 -22.96,-6.2382 -34.969,-7.875 z m -28.562,133.75 c 1.2814,0 2.5469,0.0295 3.8125,0.0937 5.0622,0.25708 10.004,1.0271 14.75,2.25 1.1865,0.3055 2.3684,0.63807 3.5312,1 2.3256,0.72436 4.591,1.5592 6.8125,2.5 1.1108,0.47009 2.2003,0.9754 3.2812,1.5 0.54047,0.2623 1.092,0.53738 1.625,0.8125 0.0745,0.0382 0.1444,0.0866 0.21875,0.125 0.725,0.37479 1.4454,0.75853 2.1562,1.1562 0.78266,0.43999 1.5467,0.87827 2.3125,1.3438 2.042,1.242 4.0307,2.5728 5.9375,4 0.7151,0.5349 1.4291,1.0967 2.125,1.6562 0.42748,0.34454 0.86163,0.67751 1.2812,1.0312 0.56656,0.47632 1.1043,0.97606 1.6562,1.4688 1.0345,0.92341 2.0519,1.8644 3.0312,2.8438 0.63022,0.63058 1.2368,1.2848 1.8438,1.9375 l 0.0312,0.0312 c 0.28068,0.30218 0.56813,0.59944 0.84375,0.90625 0.70735,0.78739 1.3891,1.5891 2.0625,2.4062 l 0.5625,0.6875 c 0.56135,0.69675 1.1199,1.4079 1.6562,2.125 0.66839,0.89519 1.3091,1.793 1.9375,2.7188 0.8779,1.2932 1.7339,2.6189 2.5312,3.9688 0.45439,0.76858 0.88533,1.5577 1.3125,2.3438 1.144,2.1051 2.1848,4.2471 3.125,6.4688 0.41211,0.97313 0.81633,1.9435 1.1875,2.9375 0.0379,0.10148 0.0563,0.21081 0.0937,0.3125 0.32958,0.89463 0.6418,1.8082 0.9375,2.7188 0.0406,0.12504 0.085,0.24967 0.125,0.375 0.11505,0.36082 0.20285,0.73055 0.3125,1.0938 0.2693,0.89198 0.54495,1.7817 0.78125,2.6875 0.065,0.24927 0.125,0.49972 0.1875,0.75 0.16007,0.6401 0.29417,1.291 0.4375,1.9375 0.17687,0.79784 0.34904,1.599 0.5,2.4062 0.008,0.0421 0.0234,0.0828 0.0312,0.125 0.0134,0.0723 0.0181,0.14636 0.0312,0.21875 0.16988,0.93277 0.3341,1.868 0.46875,2.8125 0.009,0.063 0.0224,0.12448 0.0312,0.1875 0.0289,0.20674 0.0353,0.41772 0.0625,0.625 0.11459,0.87239 0.2285,1.7434 0.3125,2.625 0.10428,1.0956 0.19375,2.2038 0.25,3.3125 0.0632,1.2554 0.0937,2.5415 0.0937,3.8125 0,2.5629 -0.12124,5.0662 -0.375,7.5625 -10e-4,0.0103 0.001,0.021 0,0.0312 -0.12634,1.2377 -0.28232,2.4685 -0.46875,3.6875 -0.002,0.0102 0.002,0.0211 0,0.0312 -0.18692,1.2188 -0.41078,2.4264 -0.65625,3.625 -0.002,0.01 0.002,0.0212 0,0.0312 -0.12298,0.59923 -0.26393,1.1875 -0.40625,1.7812 -0.13757,0.59506 -0.28571,1.1918 -0.4375,1.7812 -0.003,0.01 0.003,0.0215 0,0.0312 -0.30347,1.1766 -0.64104,2.3467 -1,3.5 -0.003,0.01 0.003,0.0217 0,0.0312 -0.72181,2.3158 -1.5636,4.5999 -2.5,6.8125 -0.94018,2.2216 -1.981,4.3636 -3.125,6.4688 -0.004,0.008 0.004,0.0232 0,0.0312 -1.1404,2.0967 -2.3884,4.1251 -3.7188,6.0938 -0.005,0.007 0.005,0.024 0,0.0312 -0.66325,0.98075 -1.3544,1.9284 -2.0625,2.875 -0.005,0.007 0.005,0.0244 0,0.0312 -0.70862,0.9467 -1.4668,1.8702 -2.2188,2.7812 -0.005,0.006 0.005,0.025 0,0.0312 -3.0247,3.6623 -6.3992,7.0389 -10.062,10.062 -3.669,3.0283 -7.6338,5.7122 -11.844,8 -2.1051,1.144 -4.2784,2.1848 -6.5,3.125 -2.2216,0.9402 -4.487,1.7762 -6.8125,2.5 -1.1628,0.36193 -2.3448,0.6945 -3.5312,1 -4.7458,1.2219 -9.6878,1.9932 -14.75,2.25 -1.2656,0.0642 -2.5311,0.0937 -3.8125,0.0937 -1.2814,0 -2.5469,-0.0295 -3.8125,-0.0937 -5.0622,-0.25708 -10.004,-1.0271 -14.75,-2.25 -1.1865,-0.3055 -2.3684,-0.63807 -3.5312,-1 -2.3256,-0.72436 -4.591,-1.5592 -6.8125,-2.5 -2.2215,-0.9408 -4.3949,-1.981 -6.5,-3.125 -1.0525,-0.57237 -2.0727,-1.1915 -3.0938,-1.8125 -1.0211,-0.621 -2.0405,-1.2712 -3.0312,-1.9375 -0.9907,-0.6663 -1.9528,-1.3493 -2.9062,-2.0625 -1.9069,-1.4264 -3.7408,-2.9322 -5.5,-4.5312 -0.87406,-0.79448 -1.7272,-1.634 -2.5625,-2.4688 -0.84592,-0.84541 -1.6642,-1.6773 -2.4688,-2.5625 -0.005,-0.006 0.005,-0.0254 0,-0.0312 -0.79946,-0.88004 -1.5867,-1.7698 -2.3438,-2.6875 -0.7571,-0.9177 -1.5056,-1.859 -2.2188,-2.8125 -0.7132,-0.9535 -1.3949,-1.9178 -2.0625,-2.9062 -1.3354,-1.9761 -2.5747,-4.0199 -3.7188,-6.125 -1.1441,-2.1051 -2.1848,-4.2471 -3.125,-6.4688 -0.004,-0.009 0.004,-0.0224 0,-0.0312 -0.46628,-1.1022 -0.92991,-2.2152 -1.3438,-3.3438 -0.003,-0.009 0.003,-0.022 0,-0.0312 -0.41674,-1.1379 -0.79437,-2.2744 -1.1562,-3.4375 -0.35411,-1.1377 -0.66841,-2.2778 -0.96875,-3.4375 -0.0215,-0.0831 -0.0413,-0.16683 -0.0625,-0.25 -0.26945,-1.0556 -0.52632,-2.1459 -0.75,-3.2188 -0.0561,-0.26964 -0.1031,-0.5418 -0.15625,-0.8125 -0.1496,-0.76056 -0.31137,-1.5126 -0.4375,-2.2812 -0.0631,-0.38498 -0.13034,-0.7693 -0.1875,-1.1562 -0.005,-0.0304 0.004,-0.0633 0,-0.0937 -0.14909,-1.0167 -0.26774,-2.0326 -0.375,-3.0625 -0.0185,-0.17766 -0.0452,-0.35322 -0.0625,-0.53125 -0.10206,-1.0538 -0.16146,-2.1208 -0.21875,-3.1875 -0.005,-0.0844 -0.027,-0.16551 -0.0312,-0.25 -0.0642,-1.2656 -0.0937,-2.5311 -0.0937,-3.8125 0,-1.2814 0.0295,-2.5469 0.0937,-3.8125 0.0613,-1.253 0.15495,-2.5072 0.28125,-3.75 10e-4,-0.0103 -10e-4,-0.0209 0,-0.0312 0.12581,-1.2378 0.28284,-2.4684 0.46875,-3.6875 0.002,-0.0102 -0.002,-0.0211 0,-0.0312 0.1864,-1.2189 0.41129,-2.4263 0.65625,-3.625 0.002,-0.01 -0.002,-0.0213 0,-0.0312 0.24545,-1.1986 0.54127,-2.3856 0.84375,-3.5625 0.002,-0.01 -0.003,-0.0215 0,-0.0312 0.30296,-1.1767 0.64153,-2.3466 1,-3.5 0.003,-0.009 -0.003,-0.0218 0,-0.0312 0.36188,-1.1628 0.73951,-2.3 1.1562,-3.4375 0.31226,-0.85229 0.65771,-1.6939 1,-2.5312 0.0389,-0.095 0.0857,-0.18642 0.125,-0.28125 0.16826,-0.40679 0.32476,-0.81563 0.5,-1.2188 0.27026,-0.62099 0.55708,-1.2318 0.84375,-1.8438 0.19638,-0.41972 0.38979,-0.83459 0.59375,-1.25 0.44925,-0.914 0.92038,-1.8247 1.4062,-2.7188 0.004,-0.008 -0.004,-0.0233 0,-0.0312 0.57195,-1.0525 1.1607,-2.0727 1.7812,-3.0938 0.62508,-1.0284 1.2647,-2.0364 1.9375,-3.0312 0.66286,-0.98093 1.3548,-1.9282 2.0625,-2.875 0.005,-0.007 -0.005,-0.0247 0,-0.0312 0.70825,-0.94688 1.4672,-1.87 2.2188,-2.7812 0.005,-0.006 -0.005,-0.0252 0,-0.0312 0.75708,-0.91726 1.5443,-1.808 2.3438,-2.6875 2.3986,-2.6389 4.9668,-5.1036 7.7188,-7.375 3.669,-3.0283 7.6338,-5.7122 11.844,-8 2.1051,-1.144 4.2784,-2.1848 6.5,-3.125 2.2216,-0.9402 4.487,-1.7762 6.8125,-2.5 1.1628,-0.36193 2.3448,-0.6945 3.5312,-1 4.7458,-1.2219 9.6878,-1.9932 14.75,-2.25 1.2656,-0.0642 2.5311,-0.0937 3.8125,-0.0937 z"
       filter="url(#b)"
       opacity="0.88485"
       id="path275" />
    <path
       d="m 430.29,199.6 c -2.4076,18.121 -17.911,32.125 -36.688,32.125 -17.823,1e-5 -32.724,-12.598 -36.25,-29.375 -13.059,2.8118 -25.653,6.8501 -37.688,11.969 6.5954,16.77 0.1373,36.313 -15.938,45.594 -14.925,8.6172 -33.388,5.6812 -44.938,-6.0625 -8.1,7.5312 -15.638,15.691 -22.469,24.406 14.381,11.169 18.672,31.538 9.3125,47.75 -8.9272,15.462 -27.34,22.073 -43.656,16.688 -3.9103,12.02 -6.7791,24.515 -8.4688,37.375 18.742,1.8253 33.406,17.624 33.406,36.844 1e-5,18.105 -13.012,33.161 -30.188,36.375 1.278,5.759 2.7594,11.429 4.5,17 3.3596,-0.88443 6.7951,-1.2953 10.188,-1.2188 12.508,0.28213 24.573,6.9121 31.281,18.531 9.1309,15.815 5.2637,35.579 -8.2812,46.906 7.5576,9.9478 15.979,19.208 25.156,27.656 6.9784,-8.4532 17.228,-13.199 27.781,-13.438 6.5516,-0.14778 13.195,1.4549 19.281,4.9688 16.875,9.743 23.171,30.78 14.875,48.062 11.475,4.7507 23.452,8.5195 35.844,11.188 3.5263,-16.777 18.427,-29.375 36.25,-29.375 18.777,-3e-5 34.28,14.004 36.688,32.125 11.22,-1.5295 22.165,-3.9251 32.75,-7.1562 -5.5376,-16.378 1.0517,-34.933 16.594,-43.906 5.5329,-3.1944 11.561,-4.7835 17.531,-4.9375 12.004,-0.3097 23.785,5.2531 31.094,15.5 10.674,-8.0782 20.554,-17.162 29.5,-27.094 -12.831,-11.436 -16.335,-30.691 -7.4062,-46.156 6.7083,-11.619 18.774,-18.249 31.281,-18.531 4.9894,-0.11254 10.057,0.79237 14.875,2.7812 4.3232,-10.704 7.7884,-21.851 10.312,-33.344 -16.098,-4.0234 -28.031,-18.597 -28.031,-35.938 3e-5,-18.442 13.506,-33.741 31.156,-36.562 -2.4486,-18.837 -7.3968,-36.882 -14.5,-53.812 -17.277,8.2777 -38.293,1.9922 -48.031,-14.875 -9.1042,-15.769 -5.2665,-35.469 8.1875,-46.812 -8.0768,-8.6995 -16.877,-16.737 -26.312,-23.969 -11.356,13.373 -30.989,17.175 -46.719,8.0938 -14.783,-8.5352 -21.462,-25.745 -17.312,-41.5 -11.275,-3.58 -22.96,-6.2382 -34.969,-7.875 z m -28.562,133.75 c 1.2814,0 2.5469,0.0295 3.8125,0.0937 5.0622,0.25708 10.004,1.0271 14.75,2.25 1.1865,0.3055 2.3684,0.63807 3.5312,1 2.3256,0.72436 4.591,1.5592 6.8125,2.5 1.1108,0.47009 2.2003,0.9754 3.2812,1.5 0.54047,0.2623 1.092,0.53738 1.625,0.8125 0.0745,0.0382 0.1444,0.0866 0.21875,0.125 0.725,0.37479 1.4454,0.75853 2.1562,1.1562 0.78266,0.43999 1.5467,0.87827 2.3125,1.3438 2.042,1.242 4.0307,2.5728 5.9375,4 0.7151,0.5349 1.4291,1.0967 2.125,1.6562 0.42748,0.34454 0.86163,0.67751 1.2812,1.0312 0.56656,0.47632 1.1043,0.97606 1.6562,1.4688 1.0345,0.92341 2.0519,1.8644 3.0312,2.8438 0.63022,0.63058 1.2368,1.2848 1.8438,1.9375 l 0.0312,0.0312 c 0.28068,0.30218 0.56813,0.59944 0.84375,0.90625 0.70735,0.78739 1.3891,1.5891 2.0625,2.4062 l 0.5625,0.6875 c 0.56135,0.69675 1.1199,1.4079 1.6562,2.125 0.66839,0.89519 1.3091,1.793 1.9375,2.7188 0.8779,1.2932 1.7339,2.6189 2.5312,3.9688 0.45439,0.76858 0.88533,1.5577 1.3125,2.3438 1.144,2.1051 2.1848,4.2471 3.125,6.4688 0.41211,0.97313 0.81633,1.9435 1.1875,2.9375 0.0379,0.10148 0.0563,0.21081 0.0937,0.3125 0.32958,0.89463 0.6418,1.8082 0.9375,2.7188 0.0406,0.12504 0.085,0.24967 0.125,0.375 0.11505,0.36082 0.20285,0.73055 0.3125,1.0938 0.2693,0.89198 0.54495,1.7817 0.78125,2.6875 0.065,0.24927 0.125,0.49972 0.1875,0.75 0.16007,0.6401 0.29417,1.291 0.4375,1.9375 0.17687,0.79784 0.34904,1.599 0.5,2.4062 0.008,0.0422 0.0235,0.0828 0.0312,0.125 0.0134,0.0723 0.0181,0.14636 0.0312,0.21875 0.16988,0.93277 0.3341,1.868 0.46875,2.8125 0.009,0.063 0.0224,0.12448 0.0312,0.1875 0.0289,0.20674 0.0353,0.41772 0.0625,0.625 0.11459,0.87239 0.2285,1.7434 0.3125,2.625 0.10428,1.0956 0.19375,2.2038 0.25,3.3125 0.0632,1.2554 0.0937,2.5415 0.0937,3.8125 0,2.5629 -0.12124,5.0662 -0.375,7.5625 -10e-4,0.0103 10e-4,0.021 0,0.0312 -0.12634,1.2377 -0.28232,2.4685 -0.46875,3.6875 -0.002,0.0102 0.002,0.0211 0,0.0312 -0.18692,1.2188 -0.41078,2.4264 -0.65625,3.625 -0.002,0.01 0.002,0.0212 0,0.0312 -0.12298,0.59923 -0.26393,1.1875 -0.40625,1.7812 -0.13757,0.59506 -0.28571,1.1918 -0.4375,1.7812 -0.003,0.01 0.003,0.0215 0,0.0312 -0.30347,1.1766 -0.64104,2.3467 -1,3.5 -0.003,0.01 0.003,0.0217 0,0.0312 -0.72181,2.3158 -1.5636,4.5999 -2.5,6.8125 -0.94018,2.2216 -1.981,4.3636 -3.125,6.4688 -0.004,0.008 0.004,0.0232 0,0.0312 -1.1404,2.0967 -2.3884,4.1251 -3.7188,6.0938 -0.005,0.007 0.005,0.024 0,0.0312 -0.66325,0.98075 -1.3544,1.9284 -2.0625,2.875 -0.005,0.007 0.005,0.0244 0,0.0312 -0.70862,0.9467 -1.4668,1.8702 -2.2188,2.7812 -0.005,0.006 0.005,0.025 0,0.0312 -3.0247,3.6623 -6.3992,7.0389 -10.062,10.062 -3.669,3.0283 -7.6338,5.7122 -11.844,8 -2.1051,1.144 -4.2784,2.1848 -6.5,3.125 -2.2216,0.9402 -4.487,1.7762 -6.8125,2.5 -1.1628,0.36193 -2.3448,0.6945 -3.5312,1 -4.7458,1.2219 -9.6878,1.9932 -14.75,2.25 -1.2656,0.0642 -2.5311,0.0937 -3.8125,0.0937 -1.2814,0 -2.5469,-0.0295 -3.8125,-0.0937 -5.0622,-0.25708 -10.004,-1.0271 -14.75,-2.25 -1.1865,-0.3055 -2.3684,-0.63807 -3.5312,-1 -2.3256,-0.72436 -4.591,-1.5592 -6.8125,-2.5 -2.2215,-0.9408 -4.3949,-1.981 -6.5,-3.125 -1.0525,-0.57237 -2.0727,-1.1915 -3.0938,-1.8125 -1.0211,-0.621 -2.0405,-1.2712 -3.0312,-1.9375 -0.9907,-0.6663 -1.9528,-1.3493 -2.9062,-2.0625 -1.9069,-1.4264 -3.7408,-2.9322 -5.5,-4.5312 -0.87406,-0.79448 -1.7272,-1.634 -2.5625,-2.4688 -0.84592,-0.84541 -1.6642,-1.6773 -2.4688,-2.5625 -0.005,-0.006 0.005,-0.0254 0,-0.0312 -0.79946,-0.88004 -1.5867,-1.7698 -2.3438,-2.6875 -0.7571,-0.9177 -1.5056,-1.859 -2.2188,-2.8125 -0.7132,-0.9535 -1.3949,-1.9178 -2.0625,-2.9062 -1.3354,-1.9761 -2.5747,-4.0199 -3.7188,-6.125 -1.1441,-2.1051 -2.1848,-4.2471 -3.125,-6.4688 -0.004,-0.009 0.004,-0.0224 0,-0.0312 -0.46628,-1.1022 -0.92991,-2.2152 -1.3438,-3.3438 -0.003,-0.009 0.003,-0.022 0,-0.0312 -0.41674,-1.1379 -0.79437,-2.2744 -1.1562,-3.4375 -0.35411,-1.1377 -0.66841,-2.2778 -0.96875,-3.4375 -0.0215,-0.0831 -0.0413,-0.16683 -0.0625,-0.25 -0.26945,-1.0556 -0.52632,-2.1459 -0.75,-3.2188 -0.0561,-0.26964 -0.1031,-0.5418 -0.15625,-0.8125 -0.1496,-0.76056 -0.31137,-1.5126 -0.4375,-2.2812 -0.0631,-0.38498 -0.13034,-0.7693 -0.1875,-1.1562 -0.005,-0.0304 0.004,-0.0633 0,-0.0937 -0.14909,-1.0167 -0.26774,-2.0326 -0.375,-3.0625 -0.0185,-0.17766 -0.0452,-0.35322 -0.0625,-0.53125 -0.10206,-1.0538 -0.16146,-2.1208 -0.21875,-3.1875 -0.005,-0.0844 -0.027,-0.16551 -0.0312,-0.25 -0.0642,-1.2656 -0.0937,-2.5311 -0.0937,-3.8125 0,-1.2814 0.0295,-2.5469 0.0937,-3.8125 0.0613,-1.253 0.15495,-2.5072 0.28125,-3.75 10e-4,-0.0103 -0.001,-0.0209 0,-0.0312 0.12581,-1.2378 0.28284,-2.4684 0.46875,-3.6875 0.002,-0.0102 -0.002,-0.0211 0,-0.0312 0.1864,-1.2189 0.41129,-2.4263 0.65625,-3.625 0.002,-0.01 -0.002,-0.0213 0,-0.0312 0.24545,-1.1986 0.54127,-2.3856 0.84375,-3.5625 0.002,-0.01 -0.003,-0.0215 0,-0.0312 0.30296,-1.1767 0.64153,-2.3466 1,-3.5 0.003,-0.009 -0.003,-0.0218 0,-0.0312 0.36188,-1.1628 0.73951,-2.3 1.1562,-3.4375 0.31226,-0.85229 0.65771,-1.6939 1,-2.5312 0.0389,-0.095 0.0857,-0.18642 0.125,-0.28125 0.16826,-0.40679 0.32476,-0.81563 0.5,-1.2188 0.27026,-0.62099 0.55708,-1.2318 0.84375,-1.8438 0.19638,-0.41972 0.38979,-0.83459 0.59375,-1.25 0.44925,-0.914 0.92038,-1.8247 1.4062,-2.7188 0.004,-0.008 -0.004,-0.0233 0,-0.0312 0.57195,-1.0525 1.1607,-2.0727 1.7812,-3.0938 0.62508,-1.0284 1.2647,-2.0364 1.9375,-3.0312 0.66286,-0.98093 1.3548,-1.9282 2.0625,-2.875 0.005,-0.007 -0.005,-0.0247 0,-0.0312 0.70825,-0.94688 1.4672,-1.87 2.2188,-2.7812 0.005,-0.006 -0.005,-0.0252 0,-0.0312 0.75708,-0.91726 1.5443,-1.808 2.3438,-2.6875 2.3986,-2.6389 4.9668,-5.1036 7.7188,-7.375 3.669,-3.0283 7.6338,-5.7122 11.844,-8 2.1051,-1.144 4.2784,-2.1848 6.5,-3.125 2.2216,-0.9402 4.487,-1.7762 6.8125,-2.5 1.1628,-0.36193 2.3448,-0.6945 3.5312,-1 4.7458,-1.2219 9.6878,-1.9932 14.75,-2.25 1.2656,-0.0642 2.5311,-0.0937 3.8125,-0.0937 z"
       fill="#c0c0c0"
       id="path277" />
    <path
       d="m 401.72,236.5 c -94.471,1e-5 -171.12,76.685 -171.12,171.16 0,94.475 76.654,171.12 171.12,171.12 94.466,0 171.16,-76.654 171.16,-171.12 0,-94.466 -76.685,-171.16 -171.16,-171.16 z m 0.0312,96.844 c 1.2814,0 2.547,0.0295 3.8125,0.0937 5.0622,0.25708 10.004,1.0271 14.75,2.25 1.1865,0.3055 2.3684,0.63807 3.5313,1 2.3256,0.72436 4.591,1.5592 6.8125,2.5 3.3324,1.4103 6.5305,3.0756 9.5937,4.9375 2.042,1.242 4.0307,2.5728 5.9375,4 2.8604,2.1396 5.5727,4.4789 8.0938,7 5.0417,5.0446 9.3495,10.808 12.781,17.125 1.144,2.1051 2.1848,4.2471 3.125,6.4688 3.2969,7.785 5.3,16.256 5.75,25.125 0.0632,1.2554 0.0938,2.5415 0.0938,3.8125 0,2.5629 -0.12125,5.0662 -0.375,7.5625 -0.001,0.0103 10e-4,0.021 0,0.0312 -0.12635,1.2377 -0.28233,2.4685 -0.46876,3.6875 -0.002,0.0102 0.002,0.0211 0,0.0312 -0.18691,1.2188 -0.41077,2.4264 -0.65624,3.625 -0.002,0.01 0.002,0.0212 0,0.0312 -0.24597,1.1985 -0.54076,2.3858 -0.84376,3.5625 -0.002,0.01 0.003,0.0215 0,0.0312 -0.30347,1.1766 -0.64103,2.3467 -1,3.5 -0.003,0.01 0.003,0.0217 0,0.0312 -1.4466,4.641 -3.3416,9.0796 -5.625,13.281 -0.004,0.008 0.004,0.0232 0,0.0312 -1.1404,2.0967 -2.3884,4.1251 -3.7187,6.0938 -0.005,0.007 0.005,0.024 0,0.0312 -0.66326,0.98075 -1.3544,1.9284 -2.0625,2.875 -0.005,0.007 0.005,0.0244 0,0.0312 -0.70862,0.9467 -1.4668,1.8702 -2.2188,2.7812 -0.005,0.006 0.005,0.025 0,0.0312 -1.5099,1.8281 -3.1061,3.5748 -4.7812,5.25 -0.84542,0.84592 -1.7086,1.6642 -2.5938,2.4688 -0.87961,0.79953 -1.7702,1.5866 -2.6875,2.3438 -3.669,3.0283 -7.6338,5.7122 -11.844,8 -2.1051,1.144 -4.2784,2.1848 -6.5,3.125 -2.2216,0.9402 -4.487,1.7762 -6.8125,2.5 -1.1628,0.36193 -2.3448,0.6945 -3.5313,1 -4.7458,1.2219 -9.6878,1.9932 -14.75,2.25 -1.2656,0.0642 -2.5311,0.0937 -3.8125,0.0937 -1.2814,0 -2.5469,-0.0295 -3.8125,-0.0937 -5.0622,-0.25708 -10.004,-1.0271 -14.75,-2.25 -1.1865,-0.3055 -2.3684,-0.63807 -3.5312,-1 -2.3256,-0.72436 -4.591,-1.5592 -6.8125,-2.5 -3.3324,-1.4103 -6.5305,-3.0756 -9.5938,-4.9375 -2.042,-1.242 -4.0307,-2.5728 -5.9375,-4 -3.8202,-2.8575 -7.329,-6.0684 -10.531,-9.5938 -0.79947,-0.88004 -1.5867,-1.7698 -2.3438,-2.6875 -3.0286,-3.6693 -5.7119,-7.6336 -8,-11.844 -1.144,-2.1051 -2.1848,-4.2471 -3.125,-6.4688 -0.004,-0.009 0.004,-0.0224 0,-0.0312 -0.46627,-1.1022 -0.92991,-2.2152 -1.3437,-3.3438 -0.003,-0.009 0.003,-0.022 0,-0.0312 -0.41675,-1.1379 -0.79438,-2.2744 -1.1563,-3.4375 -1.8126,-5.8235 -2.931,-11.942 -3.25,-18.281 -0.0642,-1.2656 -0.0937,-2.5311 -0.0937,-3.8125 0,-2.5735 0.11916,-5.0875 0.375,-7.5938 0.12581,-1.2378 0.28284,-2.4684 0.46874,-3.6875 0.002,-0.0102 -0.002,-0.0211 0,-0.0312 0.1864,-1.2189 0.4113,-2.4263 0.65626,-3.625 0.002,-0.01 -0.002,-0.0213 0,-0.0312 0.24545,-1.1986 0.54126,-2.3856 0.84374,-3.5625 0.002,-0.01 -0.002,-0.0215 0,-0.0312 0.30296,-1.1767 0.64153,-2.3466 1,-3.5 0.003,-0.009 -0.003,-0.0218 0,-0.0312 0.36188,-1.1628 0.73951,-2.3 1.1563,-3.4375 1.2535,-3.4214 2.7473,-6.7101 4.4687,-9.875 0.57196,-1.0525 1.1607,-2.0727 1.7813,-3.0938 0.62508,-1.0284 1.2647,-2.0364 1.9375,-3.0312 0.66286,-0.98093 1.3548,-1.9282 2.0625,-2.875 0.005,-0.007 -0.005,-0.0247 0,-0.0312 0.70825,-0.94688 1.4672,-1.87 2.2187,-2.7812 0.005,-0.006 -0.005,-0.0252 0,-0.0312 0.75708,-0.91726 1.5443,-1.808 2.3438,-2.6875 0.7995,-0.8795 1.5971,-1.7221 2.4375,-2.5625 0.84541,-0.84592 1.7086,-1.6642 2.5937,-2.4688 0.87962,-0.79953 1.7702,-1.5866 2.6875,-2.3438 3.669,-3.0283 7.6338,-5.7122 11.844,-8 2.1051,-1.144 4.2784,-2.1848 6.5,-3.125 2.2216,-0.9402 4.4869,-1.7762 6.8125,-2.5 1.1628,-0.36193 2.3448,-0.6945 3.5312,-1 4.7458,-1.2219 9.6878,-1.9932 14.75,-2.25 1.2656,-0.0642 2.5311,-0.0937 3.8125,-0.0937 z"
       fill="#a9a9a9"
       opacity="0.79394"
       id="path279" />
    <path
       d="m 401.72,258.79 c -82.169,-1e-5 -148.84,66.706 -148.84,148.88 0,82.174 66.675,148.84 148.84,148.84 82.165,0 148.88,-66.675 148.88,-148.84 0,-82.165 -66.706,-148.88 -148.88,-148.88 z m 0.0312,74.562 c 41.006,-10e-6 74.281,33.307 74.281,74.312 0,41.005 -33.276,74.281 -74.281,74.281 -41.005,0 -74.281,-33.307 -74.281,-74.312 0,-41.005 33.276,-74.281 74.281,-74.281 z"
       fill="url(#e)"
       opacity="0.79394"
       id="path281"
       style="fill:url(#e)" />
    <path
       transform="matrix(0.83697,0,0,0.8358,76.256,87.235)"
       d="m 388.88,274.48 c -60.099,0 -108.88,48.766 -108.88,108.86 0,60.094 48.776,108.89 108.88,108.89 60.104,0 108.88,-48.766 108.88,-108.86 v -0.0382 c 0,-60.09 -48.776,-108.86 -108.88,-108.86 z m 0,24.653 c 46.575,1e-5 84.374,37.74 84.374,84.241 0,46.501 -37.8,84.203 -84.374,84.203 -46.574,0 -84.374,-37.74 -84.374,-84.241 0,-46.501 37.8,-84.203 84.374,-84.203 z"
       fill="#696969"
       filter="url(#c)"
       opacity="0.58788"
       id="path283" />
    <path
       d="m 401.73,318.63 c -49.059,0 -88.875,39.87 -88.875,89 0,49.13 39.816,89.031 88.875,89.031 49.059,0 88.875,-39.87 88.875,-89 v -0.0312 c 0,-49.13 -39.816,-89 -88.875,-89 z m 0,20.156 c 38.019,10e-6 68.875,30.856 68.875,68.875 0,38.019 -30.856,68.844 -68.875,68.844 -38.019,0 -68.875,-30.856 -68.875,-68.875 0,-38.019 30.856,-68.844 68.875,-68.844 z"
       fill="#c0c0c0"
       id="path285" />
    <path
       transform="matrix(0.58268,0.15613,-0.16297,0.6082,379.74,291.78)"
       d="m 417.44,175.31 c -2.4076,18.121 -17.911,32.125 -36.688,32.125 -17.823,1e-5 -32.724,-12.598 -36.25,-29.375 -13.059,2.8118 -25.653,6.8501 -37.688,11.969 6.5954,16.77 0.1373,36.313 -15.938,45.594 -14.925,8.6172 -33.388,5.6812 -44.938,-6.0625 -8.1,7.5312 -15.638,15.691 -22.469,24.406 14.381,11.169 18.672,31.538 9.3125,47.75 -8.9272,15.462 -27.34,22.073 -43.656,16.688 -3.9103,12.02 -6.7791,24.515 -8.4688,37.375 18.742,1.8253 33.406,17.624 33.406,36.844 1e-5,18.105 -13.012,33.161 -30.188,36.375 1.278,5.759 2.7594,11.429 4.5,17 3.3596,-0.88443 6.7951,-1.2953 10.188,-1.2188 12.508,0.28213 24.573,6.9121 31.281,18.531 9.1309,15.815 5.2637,35.579 -8.2812,46.906 7.5576,9.9478 15.979,19.208 25.156,27.656 6.9784,-8.4532 17.228,-13.199 27.781,-13.438 6.5516,-0.14778 13.195,1.4549 19.281,4.9688 16.875,9.743 23.171,30.78 14.875,48.062 11.475,4.7507 23.452,8.5195 35.844,11.188 3.5263,-16.777 18.427,-29.375 36.25,-29.375 18.777,-3e-5 34.28,14.004 36.688,32.125 11.22,-1.5295 22.165,-3.9251 32.75,-7.1562 -5.5376,-16.378 1.0517,-34.933 16.594,-43.906 5.5329,-3.1944 11.561,-4.7835 17.531,-4.9375 12.004,-0.3097 23.785,5.2531 31.094,15.5 10.674,-8.0782 20.554,-17.162 29.5,-27.094 -12.831,-11.436 -16.335,-30.691 -7.4062,-46.156 6.7083,-11.619 18.774,-18.249 31.281,-18.531 4.9894,-0.11254 10.057,0.79237 14.875,2.7812 4.3232,-10.704 7.7884,-21.851 10.312,-33.344 -16.098,-4.0234 -28.031,-18.597 -28.031,-35.938 3e-5,-18.442 13.506,-33.741 31.156,-36.562 -2.4486,-18.837 -7.3968,-36.882 -14.5,-53.812 -17.277,8.2777 -38.293,1.9922 -48.031,-14.875 -9.1042,-15.769 -5.2665,-35.469 8.1875,-46.812 -8.0768,-8.6995 -16.877,-16.737 -26.312,-23.969 -11.356,13.373 -30.989,17.175 -46.719,8.0938 -14.783,-8.5352 -21.462,-25.745 -17.312,-41.5 -11.275,-3.58 -22.96,-6.2382 -34.969,-7.875 z m -28.562,133.75 c 1.2814,0 2.5469,0.0295 3.8125,0.0937 5.0622,0.25708 10.004,1.0271 14.75,2.25 1.1865,0.3055 2.3684,0.63807 3.5312,1 2.3256,0.72436 4.591,1.5592 6.8125,2.5 1.1108,0.47009 2.2003,0.9754 3.2812,1.5 0.54047,0.2623 1.092,0.53738 1.625,0.8125 0.0745,0.0382 0.1444,0.0866 0.21875,0.125 0.725,0.37479 1.4454,0.75853 2.1562,1.1562 0.78266,0.43999 1.5467,0.87827 2.3125,1.3438 2.042,1.242 4.0307,2.5728 5.9375,4 0.7151,0.5349 1.4291,1.0967 2.125,1.6562 0.42748,0.34454 0.86163,0.67751 1.2812,1.0312 0.56656,0.47632 1.1043,0.97606 1.6562,1.4688 1.0345,0.92341 2.0519,1.8644 3.0312,2.8438 0.63022,0.63058 1.2368,1.2848 1.8438,1.9375 l 0.0312,0.0312 c 0.28068,0.30218 0.56813,0.59944 0.84375,0.90625 0.70735,0.78739 1.3891,1.5891 2.0625,2.4062 l 0.5625,0.6875 c 0.56135,0.69675 1.1199,1.4079 1.6562,2.125 0.66839,0.89519 1.3091,1.793 1.9375,2.7188 0.8779,1.2932 1.7339,2.6189 2.5312,3.9688 0.45439,0.76858 0.88533,1.5577 1.3125,2.3438 1.144,2.1051 2.1848,4.2471 3.125,6.4688 0.41211,0.97313 0.81633,1.9435 1.1875,2.9375 0.0379,0.10148 0.0563,0.21081 0.0937,0.3125 0.32958,0.89463 0.6418,1.8082 0.9375,2.7188 0.0406,0.12504 0.085,0.24967 0.125,0.375 0.11505,0.36082 0.20285,0.73055 0.3125,1.0938 0.2693,0.89198 0.54495,1.7817 0.78125,2.6875 0.065,0.24927 0.125,0.49972 0.1875,0.75 0.16007,0.6401 0.29417,1.291 0.4375,1.9375 0.17687,0.79784 0.34904,1.599 0.5,2.4062 0.008,0.0421 0.0234,0.0828 0.0312,0.125 0.0134,0.0723 0.0181,0.14636 0.0312,0.21875 0.16988,0.93277 0.3341,1.868 0.46875,2.8125 0.009,0.063 0.0224,0.12448 0.0312,0.1875 0.0289,0.20674 0.0353,0.41772 0.0625,0.625 0.11459,0.87239 0.2285,1.7434 0.3125,2.625 0.10428,1.0956 0.19375,2.2038 0.25,3.3125 0.0632,1.2554 0.0937,2.5415 0.0937,3.8125 0,2.5629 -0.12124,5.0662 -0.375,7.5625 -10e-4,0.0103 0.001,0.021 0,0.0312 -0.12634,1.2377 -0.28232,2.4685 -0.46875,3.6875 -0.002,0.0102 0.002,0.0211 0,0.0312 -0.18692,1.2188 -0.41078,2.4264 -0.65625,3.625 -0.002,0.01 0.002,0.0212 0,0.0312 -0.12298,0.59923 -0.26393,1.1875 -0.40625,1.7812 -0.13757,0.59506 -0.28571,1.1918 -0.4375,1.7812 -0.003,0.01 0.003,0.0215 0,0.0312 -0.30347,1.1766 -0.64104,2.3467 -1,3.5 -0.003,0.01 0.003,0.0217 0,0.0312 -0.72181,2.3158 -1.5636,4.5999 -2.5,6.8125 -0.94018,2.2216 -1.981,4.3636 -3.125,6.4688 -0.004,0.008 0.004,0.0232 0,0.0312 -1.1404,2.0967 -2.3884,4.1251 -3.7188,6.0938 -0.005,0.007 0.005,0.024 0,0.0312 -0.66325,0.98075 -1.3544,1.9284 -2.0625,2.875 -0.005,0.007 0.005,0.0244 0,0.0312 -0.70862,0.9467 -1.4668,1.8702 -2.2188,2.7812 -0.005,0.006 0.005,0.025 0,0.0312 -3.0247,3.6623 -6.3992,7.0389 -10.062,10.062 -3.669,3.0283 -7.6338,5.7122 -11.844,8 -2.1051,1.144 -4.2784,2.1848 -6.5,3.125 -2.2216,0.9402 -4.487,1.7762 -6.8125,2.5 -1.1628,0.36193 -2.3448,0.6945 -3.5312,1 -4.7458,1.2219 -9.6878,1.9932 -14.75,2.25 -1.2656,0.0642 -2.5311,0.0937 -3.8125,0.0937 -1.2814,0 -2.5469,-0.0295 -3.8125,-0.0937 -5.0622,-0.25708 -10.004,-1.0271 -14.75,-2.25 -1.1865,-0.3055 -2.3684,-0.63807 -3.5312,-1 -2.3256,-0.72436 -4.591,-1.5592 -6.8125,-2.5 -2.2215,-0.9408 -4.3949,-1.981 -6.5,-3.125 -1.0525,-0.57237 -2.0727,-1.1915 -3.0938,-1.8125 -1.0211,-0.621 -2.0405,-1.2712 -3.0312,-1.9375 -0.9907,-0.6663 -1.9528,-1.3493 -2.9062,-2.0625 -1.9069,-1.4264 -3.7408,-2.9322 -5.5,-4.5312 -0.87406,-0.79448 -1.7272,-1.634 -2.5625,-2.4688 -0.84592,-0.84541 -1.6642,-1.6773 -2.4688,-2.5625 -0.005,-0.006 0.005,-0.0254 0,-0.0312 -0.79946,-0.88004 -1.5867,-1.7698 -2.3438,-2.6875 -0.7571,-0.9177 -1.5056,-1.859 -2.2188,-2.8125 -0.7132,-0.9535 -1.3949,-1.9178 -2.0625,-2.9062 -1.3354,-1.9761 -2.5747,-4.0199 -3.7188,-6.125 -1.1441,-2.1051 -2.1848,-4.2471 -3.125,-6.4688 -0.004,-0.009 0.004,-0.0224 0,-0.0312 -0.46628,-1.1022 -0.92991,-2.2152 -1.3438,-3.3438 -0.003,-0.009 0.003,-0.022 0,-0.0312 -0.41674,-1.1379 -0.79437,-2.2744 -1.1562,-3.4375 -0.35411,-1.1377 -0.66841,-2.2778 -0.96875,-3.4375 -0.0215,-0.0831 -0.0413,-0.16683 -0.0625,-0.25 -0.26945,-1.0556 -0.52632,-2.1459 -0.75,-3.2188 -0.0561,-0.26964 -0.1031,-0.5418 -0.15625,-0.8125 -0.1496,-0.76056 -0.31137,-1.5126 -0.4375,-2.2812 -0.0631,-0.38498 -0.13034,-0.7693 -0.1875,-1.1562 -0.005,-0.0304 0.004,-0.0633 0,-0.0937 -0.14909,-1.0167 -0.26774,-2.0326 -0.375,-3.0625 -0.0185,-0.17766 -0.0452,-0.35322 -0.0625,-0.53125 -0.10206,-1.0538 -0.16146,-2.1208 -0.21875,-3.1875 -0.005,-0.0844 -0.027,-0.16551 -0.0312,-0.25 -0.0642,-1.2656 -0.0937,-2.5311 -0.0937,-3.8125 0,-1.2814 0.0295,-2.5469 0.0937,-3.8125 0.0613,-1.253 0.15495,-2.5072 0.28125,-3.75 10e-4,-0.0103 -10e-4,-0.0209 0,-0.0312 0.12581,-1.2378 0.28284,-2.4684 0.46875,-3.6875 0.002,-0.0102 -0.002,-0.0211 0,-0.0312 0.1864,-1.2189 0.41129,-2.4263 0.65625,-3.625 0.002,-0.01 -0.002,-0.0213 0,-0.0312 0.24545,-1.1986 0.54127,-2.3856 0.84375,-3.5625 0.002,-0.01 -0.003,-0.0215 0,-0.0312 0.30296,-1.1767 0.64153,-2.3466 1,-3.5 0.003,-0.009 -0.003,-0.0218 0,-0.0312 0.36188,-1.1628 0.73951,-2.3 1.1562,-3.4375 0.31226,-0.85229 0.65771,-1.6939 1,-2.5312 0.0389,-0.095 0.0857,-0.18642 0.125,-0.28125 0.16826,-0.40679 0.32476,-0.81563 0.5,-1.2188 0.27026,-0.62099 0.55708,-1.2318 0.84375,-1.8438 0.19638,-0.41972 0.38979,-0.83459 0.59375,-1.25 0.44925,-0.914 0.92038,-1.8247 1.4062,-2.7188 0.004,-0.008 -0.004,-0.0233 0,-0.0312 0.57195,-1.0525 1.1607,-2.0727 1.7812,-3.0938 0.62508,-1.0284 1.2647,-2.0364 1.9375,-3.0312 0.66286,-0.98093 1.3548,-1.9282 2.0625,-2.875 0.005,-0.007 -0.005,-0.0247 0,-0.0312 0.70825,-0.94688 1.4672,-1.87 2.2188,-2.7812 0.005,-0.006 -0.005,-0.0252 0,-0.0312 0.75708,-0.91726 1.5443,-1.808 2.3438,-2.6875 2.3986,-2.6389 4.9668,-5.1036 7.7188,-7.375 3.669,-3.0283 7.6338,-5.7122 11.844,-8 2.1051,-1.144 4.2784,-2.1848 6.5,-3.125 2.2216,-0.9402 4.487,-1.7762 6.8125,-2.5 1.1628,-0.36193 2.3448,-0.6945 3.5312,-1 4.7458,-1.2219 9.6878,-1.9932 14.75,-2.25 1.2656,-0.0642 2.5311,-0.0937 3.8125,-0.0937 z"
       filter="url(#b)"
       opacity="0.88485"
       id="path287" />
    <path
       d="m 594.96114,464.34674 c -4.40267,10.57859 -16.09567,16.53254 -27.50617,13.4751 -10.83067,-2.90207 -17.84248,-12.9552 -17.26373,-23.68672 -8.39209,-0.42413 -16.70045,-0.0299 -24.84409,1.10935 1.28752,11.22698 -5.80728,22.0068 -17.08139,25.00805 -10.46802,2.78665 -21.21127,-1.99713 -26.32485,-10.98757 -6.14404,3.24058 -12.04819,6.95304 -17.61336,11.1173 6.92751,9.10347 6.23104,22.13412 -2.08687,30.42496 -7.93333,7.90754 -20.1952,8.91155 -29.23676,2.99427 -4.32622,6.64055 -8.09638,13.73769 -11.20941,21.24843 11.09345,4.15691 17.44183,16.10948 14.324,27.74537 -2.93696,10.96091 -13.28683,17.95719 -24.24557,17.10652 -0.15763,3.6947 -0.17717,7.36872 -0.0231,11.02481 2.18509,0.0116 4.33948,0.32228 6.38861,0.92099 7.55504,2.20744 13.81156,8.18593 16.00331,16.31268 2.98326,11.06157 -2.57298,22.3973 -12.64163,27.04933 2.979,7.25318 6.59409,14.23093 10.80091,20.83976 5.61201,-3.98142 12.61059,-5.18589 19.06238,-3.61161 4.00536,0.97734 7.78255,3.02936 10.9111,6.14776 8.67462,8.64643 9.08785,22.40781 1.24274,31.5199 6.20237,4.74457 12.86987,8.97661 19.96723,12.60958 4.86455,-9.58315 15.96352,-14.78352 26.7942,-11.88145 11.41049,3.05741 18.55996,14.0602 17.08348,25.42287 7.06669,0.90106 14.10619,1.23279 21.06292,1.00022 -0.70829,-10.81725 6.30597,-20.97776 17.20644,-23.87955 3.88055,-1.03303 7.8013,-1.01355 11.45463,-0.1346 7.34499,1.76713 13.60196,7.05327 16.38111,14.44698 7.79716,-3.15257 15.27483,-7.04335 22.32217,-11.59944 -5.94212,-9.01273 -4.94824,-21.2405 2.98676,-29.14968 5.96149,-5.94212 14.36904,-7.99138 22.01562,-6.12555 3.05031,0.7443 5.98311,2.11732 8.5883,4.10594 4.36355,-5.77628 8.27773,-11.961 11.6759,-18.50763 -9.12973,-5.05702 -14.01759,-15.82353 -11.20466,-26.3215 2.99165,-11.16494 13.68132,-18.22832 24.86469,-17.06229 1.5677,-11.80275 1.48804,-23.53344 -0.0821,-34.93999 -11.84225,2.19816 -23.59364,-5.02923 -26.77533,-16.82655 -2.97452,-11.02919 2.55342,-22.33129 12.56946,-27.00785 -3.49697,-6.58195 -7.54117,-12.8807 -12.10176,-18.79556 -9.07051,6.24699 -21.61809,5.35221 -29.70374,-2.70719 -7.59926,-7.57459 -8.86566,-19.08115 -3.78857,-27.94377 -6.27108,-4.0033 -12.94087,-7.51539 -19.97286,-10.46167 z m -39.05431,76.32347 c 0.77872,0.20866 1.54297,0.4326 2.30163,0.67755 3.03457,0.97993 5.91289,2.25083 8.5985,3.76395 0.67147,0.37816 1.33578,0.77196 1.98371,1.18042 1.29572,0.81721 2.53699,1.69152 3.73437,2.62283 0.59877,0.46547 1.17889,0.9488 1.75067,1.44241 0.28589,0.24681 0.57643,0.50316 0.8557,0.75651 0.0391,0.0352 0.0737,0.0759 0.11266,0.11129 0.37978,0.34496 0.75532,0.69459 1.12277,1.05112 0.40425,0.39381 0.79745,0.78356 1.18731,1.19007 1.03947,1.08445 2.03208,2.21393 2.95932,3.38848 0.34779,0.44027 0.69055,0.89664 1.02266,1.34874 0.2039,0.27819 0.41371,0.55047 0.61133,0.83295 0.26702,0.38063 0.51274,0.77074 0.76823,1.1589 0.47886,0.72749 0.9445,1.46289 1.38077,2.21523 0.28068,0.48439 0.54314,0.97922 0.80613,1.47322 l 0.0139,0.024 c 0.12155,0.22865 0.24801,0.45541 0.36573,0.68604 0.30212,0.59188 0.58638,1.18825 0.86303,1.79262 l 0.23031,0.50782 c 0.2281,0.51323 0.45214,1.03472 0.66177,1.5562 0.26096,0.65079 0.50464,1.29868 0.73637,1.96146 0.32372,0.92586 0.62882,1.86786 0.89441,2.81491 0.15146,0.5393 0.28532,1.08723 0.4174,1.63266 0.35374,1.46075 0.63873,2.92704 0.84969,4.42513 0.0926,0.65625 0.1808,1.30954 0.24511,1.97177 0.007,0.0676 0,0.1368 0.006,0.20446 0.0552,0.59528 0.0967,1.19924 0.12868,1.79863 0.004,0.0823 0.0111,0.165 0.0151,0.24738 0.0114,0.23718 0.005,0.47532 0.0125,0.71306 0.019,0.58387 0.0421,1.16741 0.0388,1.75426 -9.1e-4,0.16151 -0.005,0.32289 -0.008,0.4846 -0.007,0.41359 -0.0307,0.82946 -0.0484,1.24423 -0.0219,0.51183 -0.0473,1.02491 -0.0865,1.5382 -0.002,0.0268 8.2e-4,0.0539 -10e-4,0.0808 -0.004,0.046 -0.0128,0.0916 -0.0165,0.13753 -0.0481,0.59237 -0.1,1.1853 -0.17139,1.77906 -0.005,0.0396 -0.007,0.079 -0.0114,0.1186 -0.0159,0.12987 -0.0463,0.25863 -0.0634,0.38856 -0.0719,0.54682 -0.14395,1.09269 -0.23592,1.64011 -0.11436,0.68029 -0.23977,1.36579 -0.38543,2.04614 -0.16525,0.77034 -0.35531,1.55392 -0.5615,2.32341 -0.41574,1.5516 -0.89552,3.04744 -1.45467,4.5174 l -0.005,0.0189 c -0.27755,0.72873 -0.57201,1.44852 -0.88305,2.15615 l -0.005,0.0189 c -0.31131,0.70745 -0.64324,1.40211 -0.98685,2.08778 l -0.005,0.0189 c -0.17194,0.34276 -0.35302,0.67596 -0.53583,1.01225 -0.18281,0.33629 -0.36695,0.67498 -0.55482,1.00716 l -0.005,0.0189 c -0.37528,0.66291 -0.77025,1.31636 -1.17547,1.95613 l -0.005,0.0189 c -0.81431,1.2845 -1.69641,2.53025 -2.62436,3.71732 -0.92795,1.18707 -1.9117,2.31926 -2.94842,3.40743 -0.004,0.004 -0.001,0.0147 -0.005,0.0189 -1.03316,1.08367 -2.12058,2.10848 -3.2484,3.08371 -0.004,0.004 -9.2e-4,0.0154 -0.005,0.0189 -0.56215,0.48577 -1.13587,0.94692 -1.71975,1.40474 -0.004,0.003 -8.6e-4,0.0156 -0.005,0.0189 -0.5842,0.45775 -1.19475,0.89341 -1.7995,1.32253 -0.004,0.003 -9e-4,0.016 -0.005,0.0189 -2.43222,1.72468 -5.03064,3.21945 -7.74728,4.45349 -2.7209,1.23597 -5.56565,2.21523 -8.49516,2.91479 -1.46484,0.34985 -2.95438,0.62608 -4.45696,0.83353 -1.50258,0.20745 -3.01483,0.34474 -4.54547,0.40425 -0.76535,0.0298 -1.53757,0.0387 -2.30815,0.0304 -3.08221,-0.033 -6.21056,-0.37079 -9.3285,-1.03957 -0.7795,-0.1672 -1.55333,-0.35538 -2.33205,-0.56404 -0.77872,-0.20866 -1.54297,-0.4326 -2.30163,-0.67755 -3.03457,-0.97993 -5.91289,-2.25083 -8.59851,-3.76395 -0.67146,-0.37816 -1.33577,-0.77196 -1.98371,-1.18042 -1.29572,-0.81721 -2.53698,-1.69152 -3.73436,-2.62282 -1.19738,-0.9313 -2.34941,-1.91495 -3.44308,-2.95034 -0.54675,-0.51789 -1.06632,-1.05884 -1.58604,-1.60107 -0.51972,-0.54223 -1.03378,-1.10184 -1.52777,-1.66657 -0.49213,-0.56513 -0.96781,-1.13487 -1.43154,-1.72191 -0.92745,-1.17408 -1.79758,-2.3843 -2.60726,-3.63886 -0.40228,-0.62331 -0.78454,-1.27047 -1.15674,-1.91188 -0.37692,-0.64956 -0.73921,-1.28645 -1.08456,-1.95336 -0.002,-0.004 0.007,-0.0145 0.005,-0.0189 -0.34308,-0.66297 -0.67713,-1.32981 -0.98832,-2.00869 -0.31119,-0.67888 -0.61335,-1.37064 -0.89208,-2.06402 -0.27873,-0.69338 -0.53655,-1.38819 -0.78192,-2.09533 -0.49095,-1.41381 -0.91253,-2.85295 -1.26626,-4.3137 -0.35373,-1.46075 -0.63873,-2.92704 -0.84969,-4.42513 -8.4e-4,-0.006 0.006,-0.0129 0.005,-0.0189 -0.10455,-0.74323 -0.20576,-1.49251 -0.27417,-2.24316 -5.5e-4,-0.006 0.006,-0.0128 0.005,-0.0189 -0.0687,-0.75675 -0.11377,-1.50632 -0.14501,-2.26939 -0.0306,-0.74645 -0.0367,-1.48786 -0.0311,-2.23885 4e-4,-0.0538 0.002,-0.10773 0.003,-0.16154 0.008,-0.68297 0.0283,-1.38486 0.0664,-2.0708 0.01,-0.17238 0.0252,-0.34481 0.0369,-0.51735 0.0325,-0.48481 0.0562,-0.96644 0.1042,-1.45234 0.0241,-0.24335 0.0456,-0.48697 0.0736,-0.73054 0.002,-0.0191 0.013,-0.0376 0.0152,-0.0568 0.0743,-0.63981 0.16703,-1.27418 0.26891,-1.91515 0.0176,-0.11058 0.0298,-0.22121 0.0482,-0.33181 0.10892,-0.65458 0.24592,-1.31027 0.38414,-1.96537 0.0109,-0.0519 0.0104,-0.1046 0.0216,-0.15645 0.16628,-0.77668 0.35362,-1.54761 0.56149,-2.32341 0.20787,-0.7758 0.43112,-1.53715 0.67544,-2.29288 0.24049,-0.74862 0.50088,-1.49267 0.77924,-2.22451 l 0.005,-0.0189 c 0.27725,-0.72889 0.57231,-1.44835 0.88305,-2.15614 l 0.005,-0.0189 c 0.31101,-0.70762 0.64352,-1.40194 0.98685,-2.08778 l 0.005,-0.0189 c 0.34359,-0.68569 0.71592,-1.35617 1.09065,-2.0194 l 0.005,-0.0189 c 0.375,-0.66308 0.77051,-1.31618 1.17546,-1.95612 l 0.005,-0.0189 c 0.40853,-0.64505 0.82249,-1.27202 1.26027,-1.89285 0.32803,-0.46514 0.67448,-0.9184 1.01833,-1.36962 l 0.12158,-0.14992 c 0.16824,-0.21888 0.32966,-0.44092 0.50155,-0.65644 0.26497,-0.33195 0.53835,-0.65501 0.81184,-0.97885 l 0.56359,-0.66008 c 0.42128,-0.4802 0.85532,-0.95484 1.29561,-1.41699 0.004,-0.004 10e-4,-0.0148 0.005,-0.0189 0.51831,-0.54406 1.04158,-1.06586 1.58433,-1.58296 0.54668,-0.52081 1.09889,-1.02692 1.66915,-1.51967 0.56193,-0.48594 1.13607,-0.94675 1.71975,-1.40474 0.004,-0.003 0.001,-0.0158 0.005,-0.0189 0.584,-0.45792 1.19493,-0.89323 1.7995,-1.32253 0.004,-0.003 10e-4,-0.0161 0.005,-0.0189 0.60887,-0.43205 1.23174,-0.84311 1.86025,-1.24542 1.8857,-1.20705 3.84619,-2.28102 5.88703,-3.20808 2.7209,-1.23597 5.56565,-2.21523 8.49516,-2.91479 1.46484,-0.34985 2.95438,-0.62608 4.45696,-0.83352 1.50258,-0.20744 3.01483,-0.34475 4.54547,-0.40426 0.76535,-0.0298 1.53757,-0.0387 2.30815,-0.0304 3.0822,0.033 6.21056,0.37079 9.3285,1.03957 0.77949,0.1672 1.55333,0.35538 2.33205,0.56404 z"
       fill="#c0c0c0"
       id="path289" />
    <path
       d="m 571.61,482.04 c -57.41,-15.383 -116.43,18.562 -131.76,75.756 -15.33,57.194 18.822,116.08 76.232,131.47 57.41,15.39 116.45,-18.538 131.77,-75.732 15.32,-57.194 -18.836,-116.11 -76.246,-131.49 z m -15.691,58.636 c 0.77872,0.20866 1.543,0.43261 2.3016,0.67755 3.0346,0.97993 5.9129,2.2508 8.5985,3.764 0.67147,0.37815 1.3358,0.77196 1.9837,1.1804 1.2957,0.81721 2.537,1.6915 3.7344,2.6228 1.7963,1.3964 3.4696,2.9254 5.0291,4.5514 1.0394,1.0844 2.0321,2.2139 2.9593,3.3885 1.3912,1.7611 2.6599,3.619 3.783,5.5558 2.2455,3.8751 3.9284,8.0654 4.9891,12.449 0.35372,1.4608 0.63873,2.927 0.84968,4.4251 0.74059,5.25 0.58378,10.704 -0.58154,16.147 -0.16525,0.77034 -0.35531,1.5539 -0.56149,2.3234 -0.41575,1.5516 -0.89554,3.0474 -1.4547,4.5174 l -0.005,0.0189 c -0.27756,0.72872 -0.57202,1.4485 -0.88306,2.1562 l -0.005,0.0189 c -0.3113,0.70744 -0.64324,1.4021 -0.98685,2.0878 l -0.005,0.0189 c -0.34389,0.68551 -0.71564,1.3563 -1.0907,2.0194 l -0.005,0.0189 c -0.37528,0.6629 -0.77023,1.3164 -1.1755,1.9561 l -0.005,0.0189 c -1.632,2.5742 -3.5036,4.9528 -5.5728,7.1248 -0.004,0.004 -10e-4,0.0148 -0.005,0.0189 -1.0332,1.0837 -2.1206,2.1085 -3.2484,3.0837 -0.004,0.004 -9.3e-4,0.0153 -0.005,0.0189 -0.56216,0.48577 -1.1359,0.94692 -1.7198,1.4047 -0.004,0.003 -8.6e-4,0.0156 -0.005,0.0189 -0.5842,0.45776 -1.1948,0.89341 -1.7995,1.3225 -0.004,0.003 -9e-4,0.016 -0.005,0.0189 -1.2141,0.86092 -2.4675,1.6585 -3.7572,2.3999 -0.65098,0.37448 -1.3082,0.72931 -1.9767,1.0723 -0.66423,0.34082 -1.3331,0.67231 -2.0134,0.98133 -2.7209,1.236 -5.5656,2.2152 -8.4952,2.9148 -1.4648,0.34984 -2.9544,0.62607 -4.457,0.83353 -1.5026,0.20746 -3.0148,0.34473 -4.5455,0.40424 -0.76535,0.0298 -1.5376,0.0387 -2.3082,0.0304 -3.0822,-0.033 -6.2106,-0.3708 -9.3285,-1.0396 -0.77948,-0.16719 -1.5533,-0.35538 -2.332,-0.56404 -0.7787,-0.20866 -1.543,-0.4326 -2.3016,-0.67755 -3.0346,-0.97993 -5.9129,-2.2508 -8.5985,-3.764 -0.67146,-0.37815 -1.3358,-0.77196 -1.9837,-1.1804 -1.2957,-0.81722 -2.537,-1.6915 -3.7344,-2.6228 -1.7963,-1.3964 -3.4696,-2.9254 -5.0291,-4.5514 -1.0394,-1.0844 -2.0321,-2.2139 -2.9593,-3.3885 -1.858,-2.352 -3.4693,-4.8673 -4.8435,-7.523 -0.34307,-0.66296 -0.67712,-1.3298 -0.98832,-2.0087 -1.2452,-2.7146 -2.2328,-5.5516 -2.9403,-8.473 -0.35372,-1.4607 -0.63873,-2.927 -0.84968,-4.4251 -8.4e-4,-0.006 0.006,-0.0129 0.005,-0.0189 -0.10455,-0.74323 -0.20577,-1.4925 -0.27416,-2.2432 -5.6e-4,-0.006 0.006,-0.0128 0.005,-0.0189 -0.0687,-0.75676 -0.11378,-1.5063 -0.14502,-2.2694 -0.15678,-3.8208 0.15619,-7.7074 0.99059,-11.597 0.16629,-0.77667 0.35362,-1.5476 0.5615,-2.3234 0.41747,-1.558 0.89771,-3.0606 1.4598,-4.5363 0.27725,-0.72889 0.5723,-1.4484 0.88303,-2.1561 l 0.005,-0.0189 c 0.31102,-0.70762 0.64355,-1.4019 0.98686,-2.0878 l 0.005,-0.0189 c 0.3436,-0.68568 0.71592,-1.3562 1.0906,-2.0194 l 0.005,-0.0189 c 0.375,-0.66307 0.77051,-1.3162 1.1755,-1.9561 l 0.005,-0.0189 c 0.40854,-0.64504 0.8225,-1.272 1.2603,-1.8928 1.3168,-1.8672 2.758,-3.6151 4.3176,-5.2508 0.51831,-0.54406 1.0416,-1.0659 1.5843,-1.583 0.54668,-0.52082 1.0989,-1.0269 1.6691,-1.5197 0.56195,-0.48594 1.1361,-0.94674 1.7198,-1.4047 0.004,-0.003 10e-4,-0.0158 0.005,-0.0189 0.584,-0.45792 1.1949,-0.89324 1.7995,-1.3225 0.004,-0.003 10e-4,-0.0161 0.005,-0.0189 0.60887,-0.43205 1.2317,-0.84311 1.8603,-1.2454 0.6286,-0.40229 1.2499,-0.78255 1.8969,-1.1545 0.647,-0.37195 1.3083,-0.7293 1.9767,-1.0723 0.66425,-0.34082 1.3331,-0.67231 2.0134,-0.98133 2.7209,-1.236 5.5656,-2.2152 8.4952,-2.9148 1.4648,-0.34984 2.9544,-0.62607 4.457,-0.83352 1.5026,-0.20745 3.0148,-0.34475 4.5455,-0.40425 0.76535,-0.0298 1.5376,-0.0387 2.3081,-0.0304 3.0822,0.033 6.2106,0.37079 9.3285,1.0396 0.77949,0.16719 1.5533,0.35538 2.332,0.56403 z"
       fill="#a9a9a9"
       opacity="0.79394"
       id="path291" />
    <path
       d="m 567.99,495.53 c -49.934,-13.38 -101.27,16.148 -114.6,65.895 -13.33,49.747 16.372,100.97 66.306,114.35 49.934,13.38 101.29,-16.124 114.62,-65.871 13.33,-49.747 -16.386,-100.99 -66.32,-114.37 z m -12.077,45.146 c 24.919,6.677 39.737,32.26 33.085,57.085 -6.652,24.825 -32.271,39.553 -57.19,32.876 -24.919,-6.677 -39.737,-32.26 -33.085,-57.085 6.652,-24.825 32.271,-39.553 57.19,-32.876 z"
       fill="url(#d)"
       opacity="0.79394"
       id="path293"
       style="fill:url(#d)" />
    <path
       transform="matrix(0.50862,0.13628,-0.13558,0.506,398.04,338.67)"
       d="m 388.88,274.48 c -60.099,0 -108.88,48.766 -108.88,108.86 0,60.094 48.776,108.89 108.88,108.89 60.104,0 108.88,-48.766 108.88,-108.86 v -0.0382 c 0,-60.09 -48.776,-108.86 -108.88,-108.86 z m 0,24.653 c 46.575,1e-5 84.374,37.74 84.374,84.241 0,46.501 -37.8,84.203 -84.374,84.203 -46.574,0 -84.374,-37.74 -84.374,-84.241 0,-46.501 37.8,-84.203 84.374,-84.203 z"
       fill="#696969"
       filter="url(#c)"
       opacity="0.58788"
       id="path295" />
    <path
       d="m 558.29,531.76 c -29.813,-7.9883 -60.477,9.6666 -68.447,39.41 -7.97,29.7434 9.7533,60.384 39.566,68.373 29.8127,7.989 60.477,-9.6665 68.447,-39.41 l 0.005,-0.0189 c 7.9698,-29.744 -9.7584,-60.365 -39.571,-68.354 z m -3.2698,12.203 c 23.104,6.1907 36.85,29.896 30.682,52.913 -6.168,23.017 -29.919,36.655 -53.023,30.464 -23.104,-6.191 -36.85,-29.896 -30.682,-52.913 6.168,-23.017 29.919,-36.655 53.023,-30.464 z"
       fill="#c0c0c0"
       id="path297" />
  </g>
</svg>
